# xmcd
#
# Track frame offsets:
# 150
# 15384
# 33063
# 49039
# 64755
# 82150
# 96896
# 115051
# 130279
# 144181
# 160114
# 174839
#
# Disc length: 2505 seconds
#
#
# Revision: 0
# Processed by: cddbd v1.5.1PL2 Copyright (c) Steve Scherf et al.
# Submitted via: FreeRIP 2.944 
#
DISCID=8c09c70c
DTITLE=Gino and geno - A galera do chapeu
DYEAR=2005
DGENRE=Country
TTITLE0=Agita ai
TTITLE1=Acidente de amor
TTITLE2=Bebo pra carai
TTITLE3=Cara boa
TTITLE4=O gaviao
TTITLE5=A galera do chapeu
TTITLE6=A mulher e a bebida
TTITLE7=Que amor é esse
TTITLE8=Que bicho que é
TTITLE9=Saudade Cigana
TTITLE10=Ficando com ela
TTITLE11=Uma noticia pra te dar
EXTD=
EXTT0=
EXTT1=
EXTT2=
EXTT3=
EXTT4=
EXTT5=
EXTT6=
EXTT7=
EXTT8=
EXTT9=
EXTT10=
EXTT11=
PLAYORDER=
